<svg id="Capa_1" enable-background="new 0 0 512 512" height="512" viewBox="0 0 512 512" width="512" xmlns="http://www.w3.org/2000/svg"><g><path d="m467 0h-422c-24.901 0-45 20.099-45 45v302c0 24.899 20.099 45 45 45h422c24.901 0 45-20.101 45-45v-302c0-24.901-20.099-45-45-45z" fill="#3d6dcc"/><path d="m512 45v302c0 24.899-20.099 45-45 45h-181v-392h181c24.901 0 45 20.099 45 45z" fill="#2e3e99"/><path d="m437 60h-302c-8.401 0-15 6.599-15 15v241c0 8.399 6.599 15 15 15h302c8.401 0 15-6.601 15-15v-241c0-8.401-6.599-15-15-15z" fill="#e6f3ff"/><path d="m452 75v241c0 8.399-6.599 15-15 15h-151v-271h151c8.401 0 15 6.599 15 15z" fill="#cce6ff"/><path d="m45 452h-30c-8.291 0-15 6.709-15 15s6.709 15 15 15h30c8.291 0 15-6.709 15-15s-6.709-15-15-15z" fill="#3d6dcc"/><g fill="#2e3e99"><path d="m15 482h30c8.291 0 15-6.709 15-15h-60c0 8.291 6.709 15 15 15z"/><path d="m75 121c-8.291 0-15-6.709-15-15v-31c0-8.291 6.709-15 15-15s15 6.709 15 15v31c0 8.291-6.709 15-15 15z"/><path d="m75 211c-8.291 0-15-6.709-15-15v-30c0-8.291 6.709-15 15-15s15 6.709 15 15v30c0 8.291-6.709 15-15 15z"/><circle cx="75" cy="316" r="15"/></g><path d="m388.001 247-90-120c-3.001-3.602-7.5-5.7-12.001-5.7s-9 2.098-12.001 5.7l-90 120c-3.3 4.499-3.9 10.499-1.5 15.599 2.701 5.101 7.801 8.401 13.501 8.401h180c5.7 0 10.8-3.3 13.5-8.401 2.401-5.099 1.8-11.1-1.499-15.599zm-162.001-6 60-80 60.001 80z" fill="#cce6ff"/><path d="m271 422h-151l-15 30v15 15l15 30h151l15-30v-15-15z" fill="#9ef"/><path d="m120 512h151l15-30v-15h-181v15z" fill="#5cc3e6"/><g><path d="m117.422 422c-31.348 0-60.82 12.217-83.027 34.395-2.813 2.812-4.395 6.621-4.395 10.605s1.582 7.793 4.395 10.605c22.207 22.178 51.679 34.395 83.027 34.395h2.578v-45-45z" fill="#3d6dcc"/><path d="m117.422 512h2.578v-45h-90c0 3.984 1.582 7.793 4.395 10.605 22.207 22.178 51.679 34.395 83.027 34.395z" fill="#2e3e99"/><path d="m467 422h-196v45 45h196c24.814 0 45-20.186 45-45s-20.186-45-45-45z" fill="#3d6dcc"/><path d="m467 512c24.814 0 45-20.186 45-45h-241v45z" fill="#2e3e99"/></g><path d="m388.001 247-90-120c-3.001-3.602-7.5-5.7-12.001-5.7v39.7l60.001 80h-60.001v30h90c5.7 0 10.8-3.3 13.5-8.401 2.401-5.099 1.8-11.1-1.499-15.599z" fill="#b3ceff"/></g></svg>